<?xml version="1.0" encoding="UTF-8" standalone="no" ?>
<!DOCTYPE svg PUBLIC "-//W3C//DTD SVG 1.1//EN" "http://www.w3.org/Graphics/SVG/1.1/DTD/svg11.dtd">
<svg xmlns="http://www.w3.org/2000/svg" xmlns:xlink="http://www.w3.org/1999/xlink" version="1.1" width="27" height="35" viewBox="156 80 27 35" xml:space="preserve">
<desc>Created with Fabric.js 4.6.0</desc>
<defs>
</defs>
<g transform="matrix(0.27 0 0 0.27 169.85 97.34)" id="RY2ynuanqKcTSGM-q_nSq"  >
<path style="stroke: none; stroke-width: 1; stroke-dasharray: none; stroke-linecap: butt; stroke-dashoffset: 0; stroke-linejoin: miter; stroke-miterlimit: 4; fill: rgb(163,29,36); fill-rule: nonzero; opacity: 1;" vector-effect="non-scaling-stroke"  transform=" translate(-40, -40.01)" d="M 40 0 C 25.2 0 13.2 12 13.2 26.8 C 13.2 40 34.4 72.4 39.099999999999994 79.5 C 39.49999999999999 80.2 40.49999999999999 80.2 40.89999999999999 79.5 C 45.599999999999994 72.4 66.79999999999998 40 66.79999999999998 26.799999999999997 C 66.8 12 54.8 0 40 0 z" stroke-linecap="round" />
</g>
<g transform="matrix(0.27 0 0 0.27 169.85 94)" id="zw5SQdfTGPEvBJRKPMhkv"  >
<path style="stroke: none; stroke-width: 1; stroke-dasharray: none; stroke-linecap: butt; stroke-dashoffset: 0; stroke-linejoin: miter; stroke-miterlimit: 4; fill: rgb(255,255,255); fill-rule: nonzero; opacity: 1;" vector-effect="non-scaling-stroke"  transform=" translate(-40, -25.6)" d="M 56.8 25.6 C 56.8 34.900000000000006 49.3 42.400000000000006 40 42.400000000000006 C 30.700000000000003 42.400000000000006 23.2 34.900000000000006 23.2 25.600000000000005 C 23.2 16.300000000000004 30.7 8.8 40 8.8 C 49.3 8.8 56.8 16.4 56.8 25.6 z" stroke-linecap="round" />
</g>
</svg>